<?xml version="1.0" encoding="UTF-8" standalone="no"?> <svg width="512" height="512" viewBox="0 0 512 512" fill="none" xmlns="http://www.w3.org/2000/svg">
<path fill-rule="evenodd" clip-rule="evenodd" d="M232.712 57.0006C240.012 34.333 271.984 34.3332 279.284 57.0007L320.908 186.243H455.511C479.504 186.243 488.801 216.789 469.949 230.608L360.931 310.518L402.59 439.869C409.719 462.007 384.44 481.582 364.865 467.234L255.998 387.434L147.131 467.234C127.555 481.582 102.277 462.006 109.406 439.869L151.065 310.518L42.0471 230.608C23.1949 216.789 32.4919 186.243 56.4853 186.243H191.088L232.712 57.0006ZM255.998 89.083L219.876 201.242C216.636 211.302 207.284 218.243 196.59 218.243H79.3059L174.312 287.882C182.877 294.16 186.393 305.21 183.16 315.247L146.946 427.693L241.56 358.341C250.159 352.038 261.836 352.038 270.436 358.341L365.05 427.693L328.836 315.247C325.603 305.21 329.119 294.16 337.684 287.882L432.69 218.243H315.406C304.712 218.243 295.36 211.302 292.12 201.242L255.998 89.083Z" fill="black"/>
</svg>
